<?xml version="1.0" encoding="iso-8859-1"?>
<!-- Generator: Adobe Illustrator 17.1.0, SVG Export Plug-In . SVG Version: 6.00 Build 0)  -->
<!DOCTYPE svg PUBLIC "-//W3C//DTD SVG 1.1//EN" "http://www.w3.org/Graphics/SVG/1.1/DTD/svg11.dtd">
<svg xmlns="http://www.w3.org/2000/svg" xmlns:xlink="http://www.w3.org/1999/xlink" version="1.1" id="Capa_1" x="0px" y="0px" viewBox="0 0 460 460" style="enable-background:new 0 0 460 460;" xml:space="preserve" width="512px" height="512px">
<path d="M459.153,109.648l-30.284-68.835c-1.501-3.411-4.775-5.705-8.494-5.951c-3.721-0.242-7.267,1.598-9.203,4.782  c-64.912,106.739-155.093,197.762-261.113,263.694l-7.253-7.253c-3.904-3.904-10.237-3.904-14.142,0  c-3.905,3.905-3.905,10.237,0,14.143l3.765,3.766c-40.094,23.503-82.384,43.556-125.9,59.66c-3.196,1.183-5.569,3.911-6.298,7.24  c-0.729,3.328,0.288,6.799,2.697,9.209l32.126,32.127c1.909,1.909,4.466,2.929,7.073,2.929c1.164,0,2.338-0.203,3.469-0.622  c12.425-4.599,24.752-9.515,36.962-14.729c0.105-0.041,0.208-0.089,0.312-0.135c11.925-5.099,23.737-10.485,35.416-16.151  c0.235-0.106,0.468-0.217,0.696-0.342c11.348-5.52,22.572-11.298,33.648-17.335c0.139-0.07,0.274-0.148,0.41-0.226  c8.803-4.805,17.511-9.773,26.121-14.895l7.33,7.33c1.953,1.952,4.512,2.929,7.071,2.929s5.119-0.977,7.071-2.929  c3.905-3.905,3.905-10.237,0-14.143l-3.438-3.438c49.047-27.469,95.368-60.072,137.842-97.063  c45.795-39.883,87.188-84.908,123.03-133.826C460.177,116.705,460.591,112.918,459.153,109.648z M164.564,346.128  c-4.87,2.855-9.774,5.658-14.708,8.41l-1.104-1.104c-3.904-3.903-10.236-3.904-14.142,0c-2.863,2.863-3.618,7.027-2.284,10.586  c-5.349,2.811-10.73,5.561-16.143,8.249l-1.354-1.354c-3.905-3.904-10.237-3.904-14.142,0c-2.711,2.712-3.535,6.59-2.483,10.016  c-5.658,2.636-11.348,5.197-17.064,7.698L64.173,371.66c28.413-12.757,56.131-27.148,82.868-43.055L164.564,346.128z   M44.645,403.536l-16.657-16.658c5.506-2.159,10.99-4.385,16.452-6.666l16.805,16.805C55.733,399.252,50.201,401.429,44.645,403.536  z M182.482,335.762l-10.763-10.763l-7.139-7.14c101.595-63.997,188.785-150.539,253.6-251.679l20.333,46.218  C370.496,203.81,282.187,280.833,182.482,335.762z" fill="#333333"/>
<g>
</g>
<g>
</g>
<g>
</g>
<g>
</g>
<g>
</g>
<g>
</g>
<g>
</g>
<g>
</g>
<g>
</g>
<g>
</g>
<g>
</g>
<g>
</g>
<g>
</g>
<g>
</g>
<g>
</g>
</svg>
